<?xml version="1.0" encoding="utf-8"?>
<!-- Generator: Adobe Illustrator 21.0.0, SVG Export Plug-In . SVG Version: 6.00 Build 0)  -->
<svg version="1.1" id="Layer_1" xmlns="http://www.w3.org/2000/svg" xmlns:xlink="http://www.w3.org/1999/xlink" x="0px" y="0px"
	 viewBox="0 0 256 256" style="enable-background:new 0 0 256 256;" xml:space="preserve">
<style type="text/css">
	.st0{fill:#C1272D;}
	.st1{fill:#FFFFFF;}
</style>
<g>
	<path class="st0" d="M214.5,195.6h-169c-9.6,0-17.5-7.9-17.5-17.5V33.3c0-9.6,7.9-17.5,17.5-17.5h169c9.6,0,17.5,7.9,17.5,17.5V178
		C232,187.7,224.1,195.6,214.5,195.6z"/>
</g>
<circle class="st1" cx="128.8" cy="73.7" r="28.1"/>
<rect x="54" y="139" class="st1" width="148.6" height="15.9"/>
<path class="st1" d="M202.6,139.4c-0.7,12.4-148,12.3-148.6,0c-0.3-6.2,32.3-28.1,74.3-28C168,111.6,203,132.7,202.6,139.4z"/>
<polygon class="st0" points="90.8,193 166,193 127.7,243.8 127.7,243.8 "/>
</svg>
