<?xml version="1.0" encoding="utf-8"?>
<!-- Generator: Adobe Illustrator 18.0.0, SVG Export Plug-In . SVG Version: 6.00 Build 0)  -->
<!DOCTYPE svg PUBLIC "-//W3C//DTD SVG 1.1//EN" "http://www.w3.org/Graphics/SVG/1.1/DTD/svg11.dtd">
<svg version="1.1" id="Layer_1" xmlns="http://www.w3.org/2000/svg" xmlns:xlink="http://www.w3.org/1999/xlink" x="0px" y="0px"
	 viewBox="0 0 500 500" enable-background="new 0 0 500 500" xml:space="preserve">
<circle fill="#BE1E2D" cx="249.9" cy="250.9" r="249.9"/>
<g>
	<path fill="#FFFFFF" d="M232.6,313.6v28.9h-82.1c-8.2,0-15.9-1.9-22.7-5.3c-10.3-5-18.6-13.3-23.5-23.6c-3.5-6.8-5.4-14.5-5.4-22.7
		V180.5h28.9v113.2c1.3,10.3,9.5,18.5,19.8,19.8H232.6z"/>
	<path fill="#FFFFFF" d="M417.5,180.5v28.9H299.3c-8.2,0-14.8,6.7-14.8,14.9v15h104.2v28.9H284.4v74.3h-28.8V224.3
		c0-24.1,19.5-43.8,43.7-43.8H417.5z"/>
</g>
</svg>
