<?xml version="1.0" encoding="utf-8"?>
<!-- Generator: Adobe Illustrator 22.1.0, SVG Export Plug-In . SVG Version: 6.00 Build 0)  -->
<svg version="1.1" id="Layer_1" xmlns="http://www.w3.org/2000/svg" xmlns:xlink="http://www.w3.org/1999/xlink" x="0px" y="0px"
	 viewBox="0 0 500 131" style="enable-background:new 0 0 500 131;" xml:space="preserve">
<style type="text/css">
	.st0{fill:#FFFFFF;}
	.st1{fill:#D32E2E;}
</style>
<circle class="st0" cx="63.8" cy="65.9" r="60.5"/>
<path class="st1" d="M90.8,43.1c0.6,0.6,1.2,1.3,1.7,2.1c2.1,3.4,2.3,7.5,0.5,11.1L74.6,93.1c-1.9,3.9-5.8,6.3-10.2,6.3
	c-4.3,0-8.2-2.4-10.2-6.3L35.8,56.3c-1.8-3.6-1.6-7.7,0.5-11.1c2.1-3.4,5.7-5.4,9.7-5.4l25.7,0v7.4l-25.7,0c-1.4,0-2.7,0.7-3.4,1.9
	c-0.8,1.2-0.8,2.6-0.2,3.9l18.4,36.8c0.7,1.4,2,2.2,3.6,2.2c1.6,0,2.9-0.8,3.6-2.2L86.4,53c0.6-1.3,0.6-2.7-0.2-3.9
	c-0.8-1.2-2-1.9-3.4-1.9l-12.5,0l0-7.4l12.5,0C85.9,39.8,88.7,41,90.8,43.1z"/>
<g>
	<path class="st0" d="M180.6,84.5c0.6,0,1.1,0.2,1.5,0.6c0.4,0.4,0.6,0.9,0.6,1.5v5.7c0,0.6-0.2,1.1-0.6,1.5
		c-0.4,0.4-0.9,0.6-1.5,0.6h-34.9c-0.6,0-1.1-0.2-1.5-0.6c-0.4-0.4-0.6-0.9-0.6-1.5V40.8c0-0.6,0.2-1.1,0.6-1.5
		c0.4-0.4,0.9-0.6,1.5-0.6h6.5c0.6,0,1.1,0.2,1.5,0.6c0.4,0.4,0.6,0.9,0.6,1.5v43.7H180.6z"/>
	<path class="st0" d="M216.7,38.7c0.8,0,1.5,0.2,1.9,0.7c0.4,0.5,0.8,1.1,1.1,2l19.5,50.3c0.1,0.2,0.1,0.3,0.1,0.6
		c0,0.6-0.2,1.1-0.6,1.5c-0.4,0.4-0.9,0.6-1.5,0.6h-5.7c-1.1,0-1.8-0.2-2.2-0.7c-0.4-0.5-0.7-0.9-0.9-1.3l-3.4-8.8h-25.2l-3.4,8.8
		c-0.2,0.4-0.5,0.9-0.9,1.3c-0.4,0.5-1.2,0.7-2.2,0.7h-5.7c-0.6,0-1.1-0.2-1.5-0.6c-0.4-0.4-0.6-0.9-0.6-1.5c0-0.2,0-0.4,0.1-0.6
		l19.5-50.3c0.3-0.9,0.7-1.6,1.1-2c0.4-0.5,1.1-0.7,1.9-0.7H216.7z M221,73.6l-8.8-22.7l-8.8,22.7H221z"/>
	<path class="st0" d="M264.9,37.9c3.6,0,6.7,0.5,9.4,1.4c2.7,1,5,2.2,6.8,3.6c1.8,1.4,3.2,3,4.1,4.7c0.9,1.7,1.4,3.4,1.6,4.9
		c0.1,0.6-0.1,1.2-0.6,1.6c-0.5,0.4-1,0.6-1.6,0.6H279c-0.9,0-1.6-0.2-2-0.5c-0.5-0.3-0.9-0.8-1.2-1.4c-0.8-1.3-2-2.5-3.6-3.5
		c-1.6-1-4-1.5-7.2-1.5c-1.4,0-2.7,0.1-3.9,0.4c-1.2,0.3-2.3,0.7-3.3,1.3c-0.9,0.6-1.7,1.2-2.2,2c-0.5,0.8-0.8,1.7-0.8,2.7
		c0,1.2,0.3,2.2,0.8,3c0.5,0.8,1.4,1.4,2.5,2c1.2,0.6,2.8,1.1,4.7,1.6c2,0.5,4.4,1,7.3,1.7c3.2,0.7,5.9,1.5,8.2,2.4
		c2.3,0.9,4.2,2,5.7,3.3c1.5,1.3,2.5,2.8,3.3,4.5c0.7,1.7,1.1,3.6,1.1,5.8c0,2.4-0.5,4.6-1.6,6.7c-1.1,2-2.6,3.8-4.5,5.3
		c-2,1.5-4.4,2.6-7.2,3.5c-2.9,0.8-6.1,1.3-9.6,1.3c-3,0-5.8-0.4-8.5-1.1c-2.7-0.7-5.1-1.8-7.2-3.1c-2.1-1.4-3.8-3-5.1-4.9
		c-1.3-1.9-2-4-2.2-6.4c-0.1-0.6,0.1-1.2,0.6-1.6c0.5-0.4,1-0.6,1.6-0.6h5.6c0.9,0,1.6,0.2,2.1,0.5c0.5,0.3,0.9,0.8,1.2,1.4
		c0.4,0.7,0.8,1.4,1.4,2.1c0.5,0.7,1.2,1.3,2.2,1.8c0.9,0.5,2,1,3.4,1.3c1.4,0.3,3,0.5,5.1,0.5c1.6,0,3.1-0.1,4.6-0.4
		c1.5-0.2,2.8-0.6,3.9-1.2c1.1-0.6,2-1.2,2.7-2.1c0.7-0.8,1-1.8,1-3.1c0-1.2-0.4-2.1-1.1-2.9c-0.7-0.7-1.9-1.4-3.4-1.9
		c-1.5-0.5-3.4-1-5.6-1.5c-2.2-0.5-4.8-1.1-7.7-1.8c-2.7-0.6-5-1.4-7-2.3c-2-0.9-3.6-2-4.9-3.2c-1.3-1.3-2.3-2.8-2.9-4.5
		c-0.6-1.7-1-3.8-1-6.2c0-2.4,0.5-4.6,1.6-6.6c1.1-2,2.5-3.7,4.4-5.2c1.9-1.4,4.1-2.6,6.6-3.4C259.2,38.3,262,37.9,264.9,37.9z"/>
	<path class="st0" d="M331.2,38.7c1.2,0,1.8,0.6,1.8,1.8v1.2c0,1.2-0.6,1.8-1.8,1.8h-27.5v21.4h25.9c1.2,0,1.8,0.6,1.8,1.8v1.2
		c0,1.2-0.6,1.8-1.8,1.8h-25.9v23c0,1.2-0.6,1.8-1.8,1.8h-1.4c-1.2,0-1.8-0.6-1.8-1.8V40.5c0-1.2,0.6-1.8,1.8-1.8H331.2z"/>
	<path class="st0" d="M364.4,38.7c5.6,0,10,1.3,13.3,4c3.3,2.7,5,6.7,5,12.1c0,4.3-1,7.7-3.1,10.2c-2.1,2.5-5.1,4.2-8.9,5.1
		L383.6,92c0.2,0.3,0.2,0.6,0.2,0.9c0,0.4-0.2,0.8-0.5,1.1c-0.3,0.3-0.7,0.5-1.1,0.5h-1c-0.9,0-1.6-0.2-2-0.6
		c-0.4-0.4-0.8-0.9-1.1-1.5l-12.7-21.4h-16.4v21.8c0,1.2-0.6,1.8-1.8,1.8h-1.4c-1.2,0-1.8-0.6-1.8-1.8V40.5c0-1.2,0.6-1.8,1.8-1.8
		H364.4z M349.1,66.1H364c9.1,0,13.7-3.8,13.7-11.3c0-7.5-4.6-11.3-13.7-11.3h-14.9V66.1z"/>
	<path class="st0" d="M414,37.9c3.1,0,5.9,0.5,8.4,1.4c2.5,0.9,4.7,2.3,6.6,4.1s3.3,4.1,4.3,6.9c1,2.7,1.6,6,1.7,9.7
		c0.1,2.4,0.2,4.6,0.2,6.7c0,2.1-0.1,4.3-0.2,6.7c-0.2,7.5-2.1,13.1-5.7,16.6c-3.6,3.6-8.7,5.3-15.3,5.3c-6.6,0-11.7-1.8-15.3-5.3
		c-3.6-3.6-5.5-9.1-5.7-16.6c-0.1-2.4-0.2-4.6-0.2-6.7c0-2.1,0.1-4.3,0.2-6.7c0.1-3.7,0.7-6.9,1.7-9.7c1-2.7,2.5-5,4.3-6.9
		c1.8-1.8,4-3.2,6.5-4.1C408,38.3,410.8,37.9,414,37.9z M414,42.6c-2.2,0-4.3,0.3-6.2,1c-1.9,0.7-3.6,1.7-5,3.1
		c-1.4,1.4-2.6,3.3-3.4,5.5c-0.8,2.2-1.3,4.9-1.4,8c-0.1,1.2-0.1,2.3-0.1,3.3c0,1,0,2,0,2.9c0,1,0,2,0,3c0,1,0.1,2.1,0.1,3.3
		c0.1,3.1,0.6,5.8,1.4,8c0.8,2.2,1.9,4,3.3,5.5c1.4,1.4,3.1,2.5,5,3.1c1.9,0.7,4,1,6.3,1s4.4-0.3,6.3-1c1.9-0.7,3.6-1.7,5-3.1
		c1.4-1.4,2.5-3.3,3.3-5.5c0.8-2.2,1.3-4.9,1.4-8c0.1-1.2,0.1-2.3,0.1-3.3c0-1,0-2,0-3c0-1,0-1.9,0-2.9c0-1,0-2.1-0.1-3.3
		c-0.1-3.1-0.6-5.7-1.4-8c-0.8-2.2-2-4.1-3.4-5.5s-3.1-2.5-5-3.1C418.3,43,416.2,42.6,414,42.6z"/>
	<path class="st0" d="M470.5,81c-1.2,0-2-0.5-2.5-1.6l-15.2-30v43.2c0,1.2-0.6,1.8-1.8,1.8h-1.4c-1.2,0-1.8-0.6-1.8-1.8V40.5
		c0-1.2,0.6-1.8,1.8-1.8h2c0.5,0,0.9,0.1,1.2,0.4c0.2,0.3,0.4,0.5,0.5,0.6l18.1,35.2l18.2-35.2c0.1-0.2,0.3-0.4,0.5-0.6
		c0.2-0.3,0.6-0.4,1.2-0.4h1.9c1.2,0,1.8,0.6,1.8,1.8v52.2c0,1.2-0.6,1.8-1.8,1.8h-1.4c-1.2,0-1.8-0.6-1.8-1.8V49.5l-15.2,30
		c-0.5,1.1-1.3,1.6-2.5,1.6H470.5z"/>
</g>
</svg>
